<?xml version="1.0" encoding="UTF-8"?>
<!DOCTYPE svg PUBLIC "-//W3C//DTD SVG 1.1//EN" "http://www.w3.org/Graphics/SVG/1.1/DTD/svg11.dtd">
<!-- Creator: CorelDRAW 2018 (64-Bit) -->
<svg xmlns="http://www.w3.org/2000/svg" xml:space="preserve" width="8.5in" height="11in" version="1.1" style="shape-rendering:geometricPrecision; text-rendering:geometricPrecision; image-rendering:optimizeQuality; fill-rule:evenodd; clip-rule:evenodd"
viewBox="0 0 8500 11000"
 xmlns:xlink="http://www.w3.org/1999/xlink">
 <defs>
  <style type="text/css">
   <![CDATA[
    .str0 {stroke:black;stroke-width:3;stroke-linecap:round;stroke-linejoin:round;stroke-miterlimit:2.61313}
    .fil0 {fill:none}
   ]]>
  </style>
 </defs>
 <g id="Layer_x0020_1">
  <metadata id="CorelCorpID_0Corel-Layer"/>
  <path class="fil0 str0" d="M1640.49 2827.5c0,-34.79 -28.2,-62.99 -62.99,-62.99 -34.79,0 -62.99,28.2 -62.99,62.99 0,34.79 28.2,62.99 62.99,62.99 34.79,0 62.99,-28.2 62.99,-62.99zm5532.01 5345l0 -5345m-250 5595c0,-0 0,-0 0,-0 138.05,0 250,-111.95 250,-250 0,0 0,0 0,0m-5595 250l5345 0m-5595 -250c0,-0 0,-0 0,-0 -3.52,136.68 103.7,246.78 250,250m-250 -5595l0 5345m250 -5595c-138.04,0 -250,111.95 -250,250m5595 -250l-5345 0m5595 250c0,-138.05 -111.95,-250 -250,-250 0,0 0,0 0,0m62.99 250c0,-34.79 -28.2,-62.99 -62.99,-62.99 -34.79,0 -62.99,28.2 -62.99,62.99 0,34.79 28.2,62.99 62.99,62.99 34.79,0 62.99,-28.2 62.99,-62.99zm-3482.99 2278.15c0,34.51 27.99,62.5 62.5,62.5 0,0 0,0 0,0m-62.5 -1867.5l0 1805m62.5 -1867.5c0,0 0,0 0,0 -34.51,0 -62.5,27.99 -62.5,62.5m2807.5 -62.5l-2745 0m2807.5 62.5c0,-34.51 -27.99,-62.5 -62.5,-62.5m62.5 1867.5l0 -1805m-62.5 1867.5c34.51,0 62.5,-27.99 62.5,-62.5m-62.5 62.5l-2745 0m2463 2000c0,-85.88 -69.62,-155.5 -155.5,-155.5 -85.88,0 -155.5,69.62 -155.5,155.5 0,85.88 69.62,155.5 155.5,155.5 85.88,0 155.5,-69.62 155.5,-155.5zm-90.5 -391.24c0,-35.9 -29.1,-65 -65,-65 -35.9,0 -65,29.1 -65,65 0,35.9 29.1,65 65,65 35.9,0 65,-29.1 65,-65zm-4297.01 1395.6c0,-34.79 -28.2,-62.99 -62.99,-62.99 -34.79,0 -62.99,28.2 -62.99,62.99 0,34.79 28.2,62.99 62.99,62.99 34.79,0 62.99,-28.2 62.99,-62.99zm5345 0c0,-34.79 -28.2,-62.99 -62.99,-62.99 -34.79,0 -62.99,28.2 -62.99,62.99 0,34.79 28.2,62.99 62.99,62.99 34.79,0 62.99,-28.2 62.99,-62.99zm-4725.99 -3969.35c0,-72.9 -59.1,-132 -132,-132 -72.9,0 -132,59.1 -132,132 0,72.9 59.1,132 132,132 72.9,0 132,-59.1 132,-132z"/>
 </g>
</svg>
